# xmcd
#
# Track frame offsets:
#	150
#	15565
#	27722
#	43730
#	56052
#	69715
#	85390
#	98960
#	114927
#	132782
#
# Disc length: 1926 seconds
#
# Revision: 2
# Processed by: cddbd v1.5.1PL2 Copyright (c) Steve Scherf et al.
# Submitted via: dBpowerAMP V4.0
#
DISCID=8807840a
DTITLE=David Allan Coe - All American Country
DYEAR=2005
DGENRE=Country
TTITLE0=Now I Lay Me Down To Cheat
TTITLE1=(Sittin On) The Dock Of The Bay
TTITLE2=Take Time To Know Her
TTITLE3=Hank Williams Junior-Junior
TTITLE4=London Homesick Blues
TTITLE5=Stand By Your Man
TTITLE6=Tennesse Whiskey
TTITLE7=Juanita
TTITLE8=Pledging My Love
TTITLE9=Would You Lay With Me (In A Field Of Stone)
EXTD=
EXTT0=
EXTT1=
EXTT2=
EXTT3=
EXTT4=
EXTT5=
EXTT6=
EXTT7=
EXTT8=
EXTT9=
PLAYORDER=
